<?xml version="1.0" encoding="UTF-8" standalone="no" ?>
<!DOCTYPE svg PUBLIC "-//W3C//DTD SVG 1.1//EN" "http://www.w3.org/Graphics/SVG/1.1/DTD/svg11.dtd">
<svg xmlns="http://www.w3.org/2000/svg" xmlns:xlink="http://www.w3.org/1999/xlink" version="1.1" width="540" height="540" viewBox="0 0 1080 1080" xml:space="preserve">
<desc>Created with Fabric.js 3.6.3</desc>
<defs>
</defs>
<g transform="matrix(3.1 0 0 3.1 539.4 539.4)"  >
<g style=""   >
		<g transform="matrix(1 0 0 1 -0.46 0.62)"  >
<path style="stroke: rgb(0,0,0); stroke-width: 2; stroke-dasharray: none; stroke-linecap: butt; stroke-dashoffset: 0; stroke-linejoin: miter; stroke-miterlimit: 4; fill: none; fill-rule: nonzero; opacity: 1;"  transform=" translate(-173.54, -174.61)" d="M 5.079 5.776 h 336.913 v 337.67 H 5.08 z" stroke-linecap="round" />
</g>
		<g transform="matrix(1 0 0 1 124.29 -133.45)"  >
<path style="stroke: rgb(0,0,0); stroke-width: 2; stroke-dasharray: none; stroke-linecap: butt; stroke-dashoffset: 0; stroke-linejoin: miter; stroke-miterlimit: 4; fill: none; fill-rule: nonzero; opacity: 1;"  transform=" translate(-298.29, -40.55)" d="M 282.734 40.554 c 0 -8.376 6.966 -15.165 15.56 -15.165 c 4.126 0 8.084 1.597 11.001 4.441 c 2.918 2.844 4.558 6.702 4.558 10.724 c 0 8.376 -6.966 15.165 -15.56 15.165 c -8.593 0 -15.559 -6.79 -15.559 -15.165 z" stroke-linecap="round" />
</g>
</g>
</g>
<g transform="matrix(1 0 0 1 537 542)"  >
<g style=""   >
		<g transform="matrix(1 0 0 1 -46.22 131.58)" id="strokes"  >
<path style="stroke: rgb(0,0,0); stroke-width: 7; stroke-dasharray: none; stroke-linecap: butt; stroke-dashoffset: 0; stroke-linejoin: round; stroke-miterlimit: 4; fill: none; fill-rule: nonzero; opacity: 1;"  transform=" translate(-1153.78, -1331.58)" d="M 1153.784 1331.576 L 1153.784 1331.576" stroke-linecap="round" />
</g>
		<g transform="matrix(1 0 0 1 -23.11 135.79)" id="strokes"  >
<path style="stroke: rgb(0,0,0); stroke-width: 7; stroke-dasharray: none; stroke-linecap: butt; stroke-dashoffset: 0; stroke-linejoin: round; stroke-miterlimit: 4; fill: none; fill-rule: nonzero; opacity: 1;"  transform=" translate(-1176.89, -1335.79)" d="M 1200 1340 L 1190.048 1339.02 L 1180.096 1338.04 L 1172.687 1337.31 L 1163.118 1334.407 L 1153.856 1331.598 L 1153.8 1331.58 L 1153.784 1331.576 L 1153.784 1331.576" stroke-linecap="round" />
</g>
		<g transform="matrix(1 0 0 1 -126.49 325.37)" id="strokes"  >
<path style="stroke: rgb(0,0,0); stroke-width: 7; stroke-dasharray: none; stroke-linecap: butt; stroke-dashoffset: 0; stroke-linejoin: round; stroke-miterlimit: 4; fill: none; fill-rule: nonzero; opacity: 1;"  transform=" translate(-1073.51, -1525.37)" d="M 1112.663 1430.85 L 1108.836 1440.089 L 1105.009 1449.328 L 1101.182 1458.566 L 1097.356 1467.805 L 1093.529 1477.044 L 1089.702 1486.283 L 1085.875 1495.522 L 1082.048 1504.76 L 1078.222 1513.999 L 1074.395 1523.238 L 1070.568 1532.477 L 1066.741 1541.716 L 1062.914 1550.954 L 1059.087 1560.193 L 1055.26 1569.432 L 1051.434 1578.671 L 1047.607 1587.91 L 1043.78 1597.148 L 1039.953 1606.387 L 1036.126 1615.626 L 1034.36 1619.89" stroke-linecap="round" />
</g>
		<g transform="matrix(1 0 0 1 96.48 275.73)" id="strokes"  >
<path style="stroke: rgb(0,0,0); stroke-width: 7; stroke-dasharray: none; stroke-linecap: butt; stroke-dashoffset: 0; stroke-linejoin: round; stroke-miterlimit: 4; fill: none; fill-rule: nonzero; opacity: 1;"  transform=" translate(-1296.48, -1475.73)" d="M 1365.64 1619.89 L 1361.813 1610.651 L 1357.986 1601.413 L 1354.159 1592.174 L 1350.333 1582.935 L 1346.506 1573.696 L 1342.679 1564.457 L 1338.852 1555.219 L 1335.025 1545.98 L 1331.198 1536.741 L 1327.372 1527.502 L 1323.545 1518.263 L 1319.718 1509.025 L 1315.891 1499.786 L 1312.064 1490.547 L 1308.237 1481.308 L 1304.411 1472.069 L 1300.584 1462.831 L 1296.757 1453.592 L 1292.93 1444.353 L 1289.103 1435.114 L 1285.276 1425.875 L 1281.45 1416.637 L 1277.623 1407.398 L 1273.796 1398.159 L 1269.969 1388.92 L 1266.142 1379.681 L 1262.315 1370.443 L 1258.489 1361.204 L 1254.662 1351.965 L 1250.835 1342.726 L 1246.216 1331.576 L 1236.647 1334.479 L 1227.313 1337.31" stroke-linecap="round" />
</g>
		<g transform="matrix(1 0 0 1 -36.76 134.44)" id="strokes"  >
<path style="stroke: rgb(0,0,0); stroke-width: 7; stroke-dasharray: none; stroke-linecap: butt; stroke-dashoffset: 0; stroke-linejoin: round; stroke-miterlimit: 4; fill: none; fill-rule: nonzero; opacity: 1;"  transform=" translate(-1163.24, -1334.44)" d="M 1172.687 1337.31 L 1163.118 1334.407 L 1153.856 1331.598 L 1153.8 1331.58" stroke-linecap="round" />
</g>
		<g transform="matrix(1 0 0 1 -105.93 275.73)" id="strokes"  >
<path style="stroke: rgb(0,0,0); stroke-width: 7; stroke-dasharray: none; stroke-linecap: butt; stroke-dashoffset: 0; stroke-linejoin: round; stroke-miterlimit: 4; fill: none; fill-rule: nonzero; opacity: 1;"  transform=" translate(-1094.07, -1475.73)" d="M 1153.784 1331.576 L 1149.957 1340.814 L 1146.13 1350.053 L 1142.303 1359.292 L 1138.476 1368.531 L 1134.65 1377.77 L 1130.823 1387.008 L 1126.996 1396.247 L 1123.169 1405.486 L 1119.342 1414.725 L 1115.516 1423.964 L 1111.689 1433.202 L 1107.862 1442.441 L 1104.035 1451.68 L 1100.208 1460.919 L 1096.381 1470.158 L 1092.554 1479.396 L 1088.728 1488.635 L 1084.901 1497.874 L 1081.074 1507.113 L 1077.247 1516.352 L 1073.42 1525.59 L 1069.594 1534.829 L 1065.767 1544.068 L 1061.94 1553.307 L 1058.113 1562.546 L 1054.286 1571.784 L 1050.459 1581.023 L 1046.632 1590.262 L 1042.806 1599.501 L 1038.979 1608.74 L 1034.36 1619.89" stroke-linecap="round" />
</g>
		<g transform="matrix(1 0 0 1 -46.22 131.58)" id="strokes"  >
<path style="stroke: rgb(0,0,0); stroke-width: 7; stroke-dasharray: none; stroke-linecap: butt; stroke-dashoffset: 0; stroke-linejoin: round; stroke-miterlimit: 4; fill: none; fill-rule: nonzero; opacity: 1;"  transform=" translate(-1153.78, -1331.58)" d="M 1153.784 1331.576 L 1153.784 1331.576 L 1153.784 1331.576" stroke-linecap="round" />
</g>
		<g transform="matrix(1 0 0 1 -121.08 69.03)" id="strokes"  >
<path style="stroke: rgb(0,0,0); stroke-width: 7; stroke-dasharray: none; stroke-linecap: butt; stroke-dashoffset: 0; stroke-linejoin: round; stroke-miterlimit: 4; fill: none; fill-rule: nonzero; opacity: 1;"  transform=" translate(-1078.92, -1269.03)" d="M 1083.594 1277.78 L 1078.88 1268.961 L 1074.281 1260.357 L 1074.246 1260.29" stroke-linecap="round" />
</g>
		<g transform="matrix(1 0 0 1 -269.82 119.97)" id="strokes"  >
<path style="stroke: rgb(0,0,0); stroke-width: 7; stroke-dasharray: none; stroke-linecap: butt; stroke-dashoffset: 0; stroke-linejoin: round; stroke-miterlimit: 4; fill: none; fill-rule: nonzero; opacity: 1;"  transform=" translate(-930.18, -1319.97)" d="M 1074.246 1260.29 L 1065.007 1264.117 L 1055.768 1267.944 L 1046.529 1271.771 L 1037.291 1275.597 L 1028.052 1279.424 L 1018.813 1283.251 L 1009.574 1287.078 L 1000.335 1290.905 L 991.097 1294.732 L 981.858 1298.558 L 975.15 1301.337 L 965.911 1305.164 L 956.672 1308.991 L 947.434 1312.818 L 938.195 1316.644 L 928.956 1320.471 L 919.717 1324.298 L 910.478 1328.125 L 901.24 1331.952 L 892.001 1335.778 L 882.762 1339.605 L 873.523 1343.432 L 864.284 1347.259 L 855.046 1351.086 L 845.807 1354.913 L 836.568 1358.74 L 827.329 1362.566 L 818.09 1366.393 L 808.852 1370.22 L 799.613 1374.047 L 790.374 1377.874 L 786.11 1379.64" stroke-linecap="round" />
</g>
		<g transform="matrix(1 0 0 1 -119.96 269.82)" id="strokes"  >
<path style="stroke: rgb(0,0,0); stroke-width: 7; stroke-dasharray: none; stroke-linecap: butt; stroke-dashoffset: 0; stroke-linejoin: round; stroke-miterlimit: 4; fill: none; fill-rule: nonzero; opacity: 1;"  transform=" translate(-1080.04, -1469.82)" d="M 1020.36 1613.89 L 1024.187 1604.651 L 1028.014 1595.413 L 1031.841 1586.174 L 1035.667 1576.935 L 1039.494 1567.696 L 1043.321 1558.457 L 1047.148 1549.219 L 1050.975 1539.98 L 1054.802 1530.741 L 1058.628 1521.502 L 1062.455 1512.263 L 1066.282 1503.025 L 1070.109 1493.786 L 1073.936 1484.547 L 1077.763 1475.308 L 1081.589 1466.069 L 1085.416 1456.831 L 1089.243 1447.592 L 1093.07 1438.353 L 1096.897 1429.114 L 1100.724 1419.875 L 1104.55 1410.637 L 1108.377 1401.398 L 1112.204 1392.159 L 1116.031 1382.92 L 1119.858 1373.682 L 1123.685 1364.443 L 1127.511 1355.204 L 1131.338 1345.965 L 1135.165 1336.726 L 1139.71 1325.754" stroke-linecap="round" />
</g>
		<g transform="matrix(1 0 0 1 -88.35 101.77)" id="strokes"  >
<path style="stroke: rgb(0,0,0); stroke-width: 7; stroke-dasharray: none; stroke-linecap: butt; stroke-dashoffset: 0; stroke-linejoin: round; stroke-miterlimit: 4; fill: none; fill-rule: nonzero; opacity: 1;"  transform=" translate(-1111.65, -1301.77)" d="M 1139.71 1325.754 L 1130.891 1321.04 L 1122.22 1316.406 L 1114.49 1310.062 L 1106.76 1303.718 L 1101.005 1298.995 L 1094.661 1291.265 L 1088.317 1283.535 L 1083.594 1277.78" stroke-linecap="round" />
</g>
		<g transform="matrix(1 0 0 1 -269.82 119.97)" id="strokes"  >
<path style="stroke: rgb(0,0,0); stroke-width: 7; stroke-dasharray: none; stroke-linecap: butt; stroke-dashoffset: 0; stroke-linejoin: round; stroke-miterlimit: 4; fill: none; fill-rule: nonzero; opacity: 1;"  transform=" translate(-930.18, -1319.97)" d="M 1074.246 1260.29 L 1065.007 1264.117 L 1055.768 1267.944 L 1046.529 1271.771 L 1037.291 1275.597 L 1028.052 1279.424 L 1018.813 1283.251 L 1009.574 1287.078 L 1000.335 1290.905 L 991.097 1294.732 L 981.858 1298.558 L 975.167 1301.33 L 965.929 1305.157 L 956.69 1308.983 L 947.451 1312.81 L 938.212 1316.637 L 928.973 1320.464 L 919.735 1324.291 L 910.496 1328.118 L 901.257 1331.944 L 892.018 1335.771 L 882.779 1339.598 L 873.541 1343.425 L 864.302 1347.252 L 855.063 1351.079 L 845.824 1354.905 L 836.585 1358.732 L 827.347 1362.559 L 818.108 1366.386 L 808.869 1370.213 L 799.63 1374.04 L 790.391 1377.866 L 786.113 1379.639 L 786.112 1379.639 L 786.111 1379.64" stroke-linecap="round" />
</g>
		<g transform="matrix(1 0 0 1 245.84 237.09)" id="strokes"  >
<path style="stroke: rgb(0,0,0); stroke-width: 7; stroke-dasharray: none; stroke-linecap: butt; stroke-dashoffset: 0; stroke-linejoin: round; stroke-miterlimit: 4; fill: none; fill-rule: nonzero; opacity: 1;"  transform=" translate(-1445.84, -1437.09)" d="M 1379.64 1613.89 L 1386.711 1606.819 L 1393.782 1599.748 L 1400.853 1592.677 L 1407.924 1585.606 L 1414.995 1578.535 L 1422.066 1571.464 L 1429.137 1564.393 L 1436.208 1557.322 L 1443.28 1550.25 L 1450.351 1543.179 L 1457.422 1536.108 L 1464.493 1529.037 L 1471.564 1521.966 L 1478.635 1514.895 L 1485.706 1507.824 L 1492.777 1500.753 L 1499.848 1493.682 L 1506.919 1486.611 L 1513.99 1479.54 L 1521.061 1472.469 L 1528.132 1465.398 L 1535.203 1458.327 L 1542.275 1451.256 L 1549.346 1444.184 L 1556.417 1437.113 L 1563.488 1430.042 L 1570.559 1422.971 L 1577.63 1415.9 L 1584.701 1408.829 L 1591.772 1401.758 L 1598.843 1394.687 L 1605.914 1387.616 L 1613.89 1379.64 L 1604.651 1375.813 L 1595.413 1371.986 L 1586.174 1368.159 L 1576.935 1364.333 L 1567.696 1360.506 L 1558.457 1356.679 L 1549.219 1352.852 L 1539.98 1349.025 L 1530.741 1345.198 L 1521.502 1341.371 L 1512.263 1337.545 L 1503.025 1333.718 L 1493.786 1329.891 L 1484.547 1326.064 L 1475.308 1322.237 L 1466.069 1318.411 L 1456.831 1314.584 L 1447.592 1310.757 L 1438.353 1306.93 L 1429.114 1303.103 L 1419.875 1299.276 L 1410.637 1295.45 L 1401.398 1291.623 L 1392.159 1287.796 L 1382.92 1283.969 L 1373.682 1280.142 L 1364.443 1276.315 L 1355.204 1272.489 L 1345.965 1268.662 L 1336.726 1264.835 L 1325.754 1260.29 L 1321.04 1269.109 L 1316.406 1277.78 L 1310.062 1285.51 L 1303.718 1293.24 L 1298.995 1298.995 L 1291.265 1305.339 L 1283.535 1311.683 L 1277.78 1316.406" stroke-linecap="round" />
</g>
		<g transform="matrix(1 0 0 1 119.97 269.82)" id="strokes"  >
<path style="stroke: rgb(0,0,0); stroke-width: 7; stroke-dasharray: none; stroke-linecap: butt; stroke-dashoffset: 0; stroke-linejoin: round; stroke-miterlimit: 4; fill: none; fill-rule: nonzero; opacity: 1;"  transform=" translate(-1319.97, -1469.82)" d="M 1260.29 1325.754 L 1264.117 1334.993 L 1267.944 1344.232 L 1271.771 1353.471 L 1275.598 1362.709 L 1279.424 1371.948 L 1283.251 1381.187 L 1287.078 1390.426 L 1290.905 1399.665 L 1294.732 1408.903 L 1298.558 1418.142 L 1301.337 1424.85 L 1305.164 1434.089 L 1308.991 1443.328 L 1312.818 1452.566 L 1316.644 1461.805 L 1320.471 1471.044 L 1324.298 1480.283 L 1328.125 1489.522 L 1331.952 1498.76 L 1335.779 1507.999 L 1339.605 1517.238 L 1343.432 1526.477 L 1347.259 1535.716 L 1351.086 1544.954 L 1354.913 1554.193 L 1358.74 1563.432 L 1362.566 1572.671 L 1366.393 1581.91 L 1370.22 1591.148 L 1374.047 1600.387 L 1377.874 1609.626 L 1379.64 1613.89" stroke-linecap="round" />
</g>
		<g transform="matrix(1 0 0 1 69.03 121.08)" id="strokes"  >
<path style="stroke: rgb(0,0,0); stroke-width: 7; stroke-dasharray: none; stroke-linecap: butt; stroke-dashoffset: 0; stroke-linejoin: round; stroke-miterlimit: 4; fill: none; fill-rule: nonzero; opacity: 1;"  transform=" translate(-1269.03, -1321.08)" d="M 1277.78 1316.406 L 1268.961 1321.12 L 1260.357 1325.719 L 1260.29 1325.754 L 1260.29 1325.754" stroke-linecap="round" />
</g>
		<g transform="matrix(1 0 0 1 119.97 269.82)" id="strokes"  >
<path style="stroke: rgb(0,0,0); stroke-width: 7; stroke-dasharray: none; stroke-linecap: butt; stroke-dashoffset: 0; stroke-linejoin: round; stroke-miterlimit: 4; fill: none; fill-rule: nonzero; opacity: 1;"  transform=" translate(-1319.97, -1469.82)" d="M 1379.64 1613.89 L 1375.813 1604.651 L 1371.986 1595.413 L 1368.16 1586.174 L 1364.333 1576.935 L 1360.506 1567.696 L 1356.679 1558.457 L 1352.852 1549.219 L 1349.025 1539.98 L 1345.198 1530.741 L 1341.372 1521.502 L 1337.545 1512.263 L 1333.718 1503.025 L 1329.891 1493.786 L 1326.064 1484.547 L 1322.237 1475.308 L 1318.411 1466.069 L 1314.584 1456.831 L 1310.757 1447.592 L 1306.93 1438.353 L 1303.103 1429.114 L 1301.33 1424.833 L 1297.503 1415.594 L 1293.676 1406.355 L 1289.849 1397.116 L 1286.022 1387.877 L 1282.196 1378.639 L 1278.369 1369.4 L 1274.542 1360.161 L 1270.715 1350.922 L 1266.888 1341.683 L 1263.061 1332.445 L 1260.29 1325.754" stroke-linecap="round" />
</g>
		<g transform="matrix(1 0 0 1 119.97 269.8)" id="strokes"  >
<path style="stroke: rgb(0,0,0); stroke-width: 7; stroke-dasharray: none; stroke-linecap: butt; stroke-dashoffset: 0; stroke-linejoin: round; stroke-miterlimit: 4; fill: none; fill-rule: nonzero; opacity: 1;"  transform=" translate(-1319.97, -1469.8)" d="M 1379.64 1613.89 L 1375.813 1604.651 L 1371.986 1595.413 L 1368.16 1586.174 L 1364.333 1576.935 L 1360.506 1567.696 L 1356.679 1558.457 L 1352.852 1549.219 L 1349.025 1539.98 L 1345.198 1530.741 L 1341.372 1521.502 L 1337.545 1512.263 L 1333.718 1503.025 L 1329.891 1493.786 L 1326.064 1484.547 L 1322.237 1475.308 L 1318.411 1466.069 L 1314.584 1456.831 L 1310.757 1447.592 L 1306.93 1438.353 L 1303.103 1429.114 L 1299.276 1419.875 L 1295.45 1410.637 L 1291.623 1401.398 L 1287.796 1392.159 L 1283.969 1382.92 L 1280.142 1373.682 L 1276.315 1364.443 L 1272.489 1355.204 L 1268.662 1345.965 L 1264.835 1336.726 L 1260.29 1325.754 L 1260.357 1325.719" stroke-linecap="round" />
</g>
		<g transform="matrix(1 0 0 1 60.32 125.74)" id="strokes"  >
<path style="stroke: rgb(0,0,0); stroke-width: 7; stroke-dasharray: none; stroke-linecap: butt; stroke-dashoffset: 0; stroke-linejoin: round; stroke-miterlimit: 4; fill: none; fill-rule: nonzero; opacity: 1;"  transform=" translate(-1260.32, -1325.74)" d="M 1260.357 1325.719 L 1260.29 1325.754" stroke-linecap="round" />
</g>
		<g transform="matrix(1 0 0 1 -275.73 0)" id="strokes"  >
<path style="stroke: rgb(0,0,0); stroke-width: 7; stroke-dasharray: none; stroke-linecap: butt; stroke-dashoffset: 0; stroke-linejoin: round; stroke-miterlimit: 4; fill: none; fill-rule: nonzero; opacity: 1;"  transform=" translate(-924.27, -1200)" d="M 969.15 1112.663 L 959.911 1108.836 L 950.672 1105.009 L 941.434 1101.182 L 932.195 1097.356 L 922.956 1093.529 L 913.717 1089.702 L 904.478 1085.875 L 895.24 1082.048 L 886.001 1078.222 L 876.762 1074.395 L 867.523 1070.568 L 858.284 1066.741 L 849.046 1062.914 L 839.807 1059.087 L 830.568 1055.26 L 821.329 1051.434 L 812.09 1047.607 L 802.852 1043.78 L 793.613 1039.953 L 784.374 1036.126 L 780.11 1034.36 L 780.11 1044.36 L 780.11 1054.36 L 780.11 1064.36 L 780.11 1074.36 L 780.11 1084.36 L 780.11 1094.36 L 780.11 1104.36 L 780.11 1114.36 L 780.11 1124.36 L 780.11 1134.36 L 780.11 1144.36 L 780.11 1154.36 L 780.11 1164.36 L 780.11 1174.36 L 780.11 1184.36 L 780.11 1194.36 L 780.11 1204.36 L 780.11 1214.36 L 780.11 1224.36 L 780.11 1234.36 L 780.11 1244.36 L 780.11 1254.36 L 780.11 1264.36 L 780.11 1274.36 L 780.11 1284.36 L 780.11 1294.36 L 780.11 1304.36 L 780.11 1314.36 L 780.11 1324.36 L 780.11 1334.36 L 780.11 1344.36 L 780.11 1354.36 L 780.11 1365.64 L 789.349 1361.813 L 798.587 1357.986 L 807.826 1354.159 L 817.065 1350.333 L 826.304 1346.506 L 835.543 1342.679 L 844.781 1338.852 L 854.02 1335.025 L 863.259 1331.198 L 872.498 1327.372 L 881.737 1323.545 L 890.975 1319.718 L 900.214 1315.891 L 909.453 1312.064 L 918.692 1308.237 L 927.931 1304.411 L 937.169 1300.584 L 946.408 1296.757 L 955.647 1292.93 L 964.886 1289.103 L 974.125 1285.276 L 983.363 1281.45 L 992.602 1277.623 L 1001.841 1273.796 L 1011.08 1269.969 L 1020.319 1266.142 L 1029.557 1262.315 L 1038.796 1258.489 L 1048.035 1254.662 L 1057.274 1250.835 L 1068.424 1246.216 L 1065.521 1236.647 L 1062.69 1227.313 L 1061.71 1217.361 L 1060.73 1207.409 L 1060 1200 L 1060.98 1190.048 L 1061.96 1180.096 L 1062.69 1172.687 L 1065.593 1163.118 L 1068.402 1153.856 L 1068.424 1153.784 L 1068.424 1153.784 L 1059.186 1149.957 L 1049.947 1146.13 L 1040.708 1142.303 L 1031.469 1138.477 L 1022.23 1134.65 L 1012.992 1130.823 L 1003.753 1126.996 L 994.514 1123.169 L 985.275 1119.342 L 976.036 1115.516 L 966.798 1111.689 L 957.559 1107.862 L 948.32 1104.035 L 939.081 1100.208 L 929.842 1096.381 L 920.604 1092.554 L 911.365 1088.728 L 902.126 1084.901 L 892.887 1081.074 L 883.648 1077.247 L 874.41 1073.42 L 865.171 1069.594 L 855.932 1065.767 L 846.693 1061.94 L 837.454 1058.113 L 828.216 1054.286 L 818.977 1050.459 L 809.738 1046.632 L 800.499 1042.806 L 791.26 1038.979 L 780.11 1034.36" stroke-linecap="round" />
</g>
		<g transform="matrix(1 0 0 1 -181.21 -66.78)" id="strokes"  >
<path style="stroke: rgb(0,0,0); stroke-width: 7; stroke-dasharray: none; stroke-linecap: butt; stroke-dashoffset: 0; stroke-linejoin: round; stroke-miterlimit: 4; fill: none; fill-rule: nonzero; opacity: 1;"  transform=" translate(-1018.79, -1133.22)" d="M 1068.424 1153.784 L 1059.186 1149.957 L 1049.947 1146.13 L 1040.708 1142.303 L 1031.469 1138.477 L 1022.23 1134.65 L 1012.992 1130.823 L 1003.753 1126.996 L 994.514 1123.169 L 985.275 1119.342 L 976.036 1115.516 L 969.15 1112.663" stroke-linecap="round" />
</g>
		<g transform="matrix(1 0 0 1 419.89 0)" id="strokes"  >
<path style="stroke: rgb(0,0,0); stroke-width: 7; stroke-dasharray: none; stroke-linecap: butt; stroke-dashoffset: 0; stroke-linejoin: round; stroke-miterlimit: 4; fill: none; fill-rule: nonzero; opacity: 1;"  transform=" translate(-1619.89, -1200)" d="M 1619.89 1365.64 L 1619.89 1355.64 L 1619.89 1345.64 L 1619.89 1335.64 L 1619.89 1325.64 L 1619.89 1315.64 L 1619.89 1305.64 L 1619.89 1295.64 L 1619.89 1285.64 L 1619.89 1275.64 L 1619.89 1265.64 L 1619.89 1255.64 L 1619.89 1245.64 L 1619.89 1235.64 L 1619.89 1225.64 L 1619.89 1215.64 L 1619.89 1205.64 L 1619.89 1195.64 L 1619.89 1185.64 L 1619.89 1175.64 L 1619.89 1165.64 L 1619.89 1155.64 L 1619.89 1145.64 L 1619.89 1135.64 L 1619.89 1125.64 L 1619.89 1115.64 L 1619.89 1105.64 L 1619.89 1095.64 L 1619.89 1085.64 L 1619.89 1075.64 L 1619.89 1065.64 L 1619.89 1055.64 L 1619.89 1045.64 L 1619.89 1034.36" stroke-linecap="round" />
</g>
		<g transform="matrix(1 0 0 1 275.73 105.93)" id="strokes"  >
<path style="stroke: rgb(0,0,0); stroke-width: 7; stroke-dasharray: none; stroke-linecap: butt; stroke-dashoffset: 0; stroke-linejoin: round; stroke-miterlimit: 4; fill: none; fill-rule: nonzero; opacity: 1;"  transform=" translate(-1475.73, -1305.93)" d="M 1331.576 1246.216 L 1340.814 1250.043 L 1350.053 1253.87 L 1359.292 1257.697 L 1368.531 1261.523 L 1377.77 1265.35 L 1387.008 1269.177 L 1396.247 1273.004 L 1405.486 1276.831 L 1414.725 1280.658 L 1423.964 1284.484 L 1430.85 1287.337 L 1440.089 1291.164 L 1449.328 1294.991 L 1458.566 1298.817 L 1467.805 1302.644 L 1477.044 1306.471 L 1486.283 1310.298 L 1495.522 1314.125 L 1504.76 1317.952 L 1513.999 1321.778 L 1523.238 1325.605 L 1532.477 1329.432 L 1541.716 1333.259 L 1550.954 1337.086 L 1560.193 1340.913 L 1569.432 1344.74 L 1578.671 1348.566 L 1587.91 1352.393 L 1597.148 1356.22 L 1606.387 1360.047 L 1615.626 1363.874 L 1619.89 1365.64" stroke-linecap="round" />
</g>
		<g transform="matrix(1 0 0 1 135.79 23.11)" id="strokes"  >
<path style="stroke: rgb(0,0,0); stroke-width: 7; stroke-dasharray: none; stroke-linecap: butt; stroke-dashoffset: 0; stroke-linejoin: round; stroke-miterlimit: 4; fill: none; fill-rule: nonzero; opacity: 1;"  transform=" translate(-1335.79, -1223.11)" d="M 1340 1200 L 1339.02 1209.952 L 1338.04 1219.904 L 1337.31 1227.313 L 1334.407 1236.882 L 1331.598 1246.144 L 1331.576 1246.216 L 1331.576 1246.216" stroke-linecap="round" />
</g>
		<g transform="matrix(1 0 0 1 138.65 -13.66)" id="strokes"  >
<path style="stroke: rgb(0,0,0); stroke-width: 7; stroke-dasharray: none; stroke-linecap: butt; stroke-dashoffset: 0; stroke-linejoin: round; stroke-miterlimit: 4; fill: none; fill-rule: nonzero; opacity: 1;"  transform=" translate(-1338.65, -1186.34)" d="M 1337.31 1172.687 L 1338.29 1182.639 L 1339.27 1192.591 L 1340 1200" stroke-linecap="round" />
</g>
		<g transform="matrix(1 0 0 1 275.73 96.48)" id="strokes"  >
<path style="stroke: rgb(0,0,0); stroke-width: 7; stroke-dasharray: none; stroke-linecap: butt; stroke-dashoffset: 0; stroke-linejoin: round; stroke-miterlimit: 4; fill: none; fill-rule: nonzero; opacity: 1;"  transform=" translate(-1475.73, -1296.48)" d="M 1337.31 1227.313 L 1334.407 1236.882 L 1331.598 1246.144 L 1331.576 1246.216 L 1340.814 1250.043 L 1350.053 1253.87 L 1359.292 1257.697 L 1368.531 1261.523 L 1377.77 1265.35 L 1387.008 1269.177 L 1396.247 1273.004 L 1405.486 1276.831 L 1414.725 1280.658 L 1423.964 1284.484 L 1430.833 1287.33 L 1440.071 1291.157 L 1449.31 1294.983 L 1458.549 1298.81 L 1467.788 1302.637 L 1477.027 1306.464 L 1486.265 1310.291 L 1495.504 1314.118 L 1504.743 1317.944 L 1513.982 1321.771 L 1523.221 1325.598 L 1532.459 1329.425 L 1541.698 1333.252 L 1550.937 1337.079 L 1560.176 1340.905 L 1569.415 1344.732 L 1578.653 1348.559 L 1587.892 1352.386 L 1597.131 1356.213 L 1606.37 1360.04 L 1615.609 1363.866 L 1619.89 1365.64" stroke-linecap="round" />
</g>
		<g transform="matrix(1 0 0 1 105.93 -275.73)" id="strokes"  >
<path style="stroke: rgb(0,0,0); stroke-width: 7; stroke-dasharray: none; stroke-linecap: butt; stroke-dashoffset: 0; stroke-linejoin: round; stroke-miterlimit: 4; fill: none; fill-rule: nonzero; opacity: 1;"  transform=" translate(-1305.93, -924.27)" d="M 1246.216 1068.424 L 1250.043 1059.186 L 1253.87 1049.947 L 1257.697 1040.708 L 1261.523 1031.469 L 1265.35 1022.23 L 1269.177 1012.992 L 1273.004 1003.753 L 1276.831 994.514 L 1280.658 985.275 L 1284.484 976.036 L 1287.337 969.15 L 1291.164 959.911 L 1294.991 950.672 L 1298.818 941.434 L 1302.644 932.195 L 1306.471 922.956 L 1310.298 913.717 L 1314.125 904.478 L 1317.952 895.24 L 1321.778 886.001 L 1325.605 876.762 L 1329.432 867.523 L 1333.259 858.284 L 1337.086 849.046 L 1340.913 839.807 L 1344.74 830.568 L 1348.566 821.329 L 1352.393 812.09 L 1356.22 802.852 L 1360.047 793.613 L 1363.874 784.374 L 1365.639 780.112 L 1365.64 780.111" stroke-linecap="round" />
</g>
		<g transform="matrix(1 0 0 1 0 -135.79)" id="strokes"  >
<path style="stroke: rgb(0,0,0); stroke-width: 7; stroke-dasharray: none; stroke-linecap: butt; stroke-dashoffset: 0; stroke-linejoin: round; stroke-miterlimit: 4; fill: none; fill-rule: nonzero; opacity: 1;"  transform=" translate(-1200, -1064.21)" d="M 1153.784 1068.424 L 1163.353 1065.521 L 1172.687 1062.69 L 1182.639 1061.71 L 1192.591 1060.73 L 1200 1060 L 1209.952 1060.98 L 1219.904 1061.96 L 1227.313 1062.69 L 1236.882 1065.593 L 1246.144 1068.402 L 1246.216 1068.424 L 1246.216 1068.424" stroke-linecap="round" />
</g>
		<g transform="matrix(1 0 0 1 105.89 -275.73)" id="strokes"  >
<path style="stroke: rgb(0,0,0); stroke-width: 7; stroke-dasharray: none; stroke-linecap: butt; stroke-dashoffset: 0; stroke-linejoin: round; stroke-miterlimit: 4; fill: none; fill-rule: nonzero; opacity: 1;"  transform=" translate(-1305.89, -924.27)" d="M 1246.144 1068.402 L 1246.216 1068.424 L 1250.043 1059.186 L 1253.87 1049.947 L 1257.697 1040.708 L 1261.523 1031.469 L 1265.35 1022.23 L 1269.177 1012.992 L 1273.004 1003.753 L 1276.831 994.514 L 1280.658 985.275 L 1284.484 976.036 L 1287.33 969.167 L 1291.157 959.929 L 1294.983 950.69 L 1298.81 941.451 L 1302.637 932.212 L 1306.464 922.973 L 1310.291 913.735 L 1314.118 904.496 L 1317.944 895.257 L 1321.771 886.018 L 1325.598 876.779 L 1329.425 867.541 L 1333.252 858.302 L 1337.079 849.063 L 1340.905 839.824 L 1344.732 830.585 L 1348.559 821.347 L 1352.386 812.108 L 1356.213 802.869 L 1360.04 793.63 L 1363.866 784.391 L 1365.639 780.112 L 1365.64 780.111" stroke-linecap="round" />
</g>
		<g transform="matrix(1 0 0 1 105.89 -275.73)" id="strokes"  >
<path style="stroke: rgb(0,0,0); stroke-width: 7; stroke-dasharray: none; stroke-linecap: butt; stroke-dashoffset: 0; stroke-linejoin: round; stroke-miterlimit: 4; fill: none; fill-rule: nonzero; opacity: 1;"  transform=" translate(-1305.89, -924.27)" d="M 1365.64 780.11 L 1361.813 789.349 L 1357.986 798.587 L 1354.159 807.826 L 1350.333 817.065 L 1346.506 826.304 L 1342.679 835.543 L 1338.852 844.781 L 1335.025 854.02 L 1331.198 863.259 L 1327.372 872.498 L 1323.545 881.737 L 1319.718 890.975 L 1315.891 900.214 L 1312.064 909.453 L 1308.237 918.692 L 1304.411 927.931 L 1300.584 937.169 L 1296.757 946.408 L 1292.93 955.647 L 1289.103 964.886 L 1285.276 974.125 L 1281.45 983.363 L 1277.623 992.602 L 1273.796 1001.841 L 1269.969 1011.08 L 1266.142 1020.318 L 1262.315 1029.557 L 1258.489 1038.796 L 1254.662 1048.035 L 1250.835 1057.274 L 1246.216 1068.424 L 1246.144 1068.402" stroke-linecap="round" />
</g>
		<g transform="matrix(1 0 0 1 -119.96 -269.82)" id="strokes"  >
<path style="stroke: rgb(0,0,0); stroke-width: 7; stroke-dasharray: none; stroke-linecap: butt; stroke-dashoffset: 0; stroke-linejoin: round; stroke-miterlimit: 4; fill: none; fill-rule: nonzero; opacity: 1;"  transform=" translate(-1080.04, -930.18)" d="M 1139.71 1074.246 L 1135.883 1065.007 L 1132.056 1055.768 L 1128.229 1046.529 L 1124.403 1037.291 L 1120.576 1028.052 L 1116.749 1018.813 L 1112.922 1009.574 L 1112.21 1007.855 L 1108.383 998.616 L 1104.556 989.378 L 1100.729 980.139 L 1098.663 975.15 L 1094.836 965.911 L 1091.009 956.672 L 1087.182 947.434 L 1083.356 938.195 L 1079.529 928.956 L 1075.702 919.717 L 1071.875 910.478 L 1068.048 901.24 L 1064.222 892.001 L 1060.395 882.762 L 1056.568 873.523 L 1052.741 864.284 L 1048.914 855.046 L 1045.087 845.807 L 1041.26 836.568 L 1037.434 827.329 L 1033.607 818.09 L 1029.78 808.852 L 1025.953 799.613 L 1022.126 790.374 L 1020.361 786.112 L 1020.36 786.111" stroke-linecap="round" />
</g>
		<g transform="matrix(1 0 0 1 -69.03 -121.08)" id="strokes"  >
<path style="stroke: rgb(0,0,0); stroke-width: 7; stroke-dasharray: none; stroke-linecap: butt; stroke-dashoffset: 0; stroke-linejoin: round; stroke-miterlimit: 4; fill: none; fill-rule: nonzero; opacity: 1;"  transform=" translate(-1130.97, -1078.92)" d="M 1122.22 1083.594 L 1131.039 1078.88 L 1139.643 1074.281 L 1139.71 1074.246 L 1139.71 1074.246" stroke-linecap="round" />
</g>
		<g transform="matrix(1 0 0 1 -101.77 -88.35)" id="strokes"  >
<path style="stroke: rgb(0,0,0); stroke-width: 7; stroke-dasharray: none; stroke-linecap: butt; stroke-dashoffset: 0; stroke-linejoin: round; stroke-miterlimit: 4; fill: none; fill-rule: nonzero; opacity: 1;"  transform=" translate(-1098.23, -1111.65)" d="M 1074.246 1139.71 L 1078.96 1130.891 L 1083.594 1122.22 L 1089.938 1114.49 L 1096.282 1106.76 L 1101.005 1101.005 L 1108.735 1094.661 L 1116.465 1088.317 L 1122.22 1083.594" stroke-linecap="round" />
</g>
		<g transform="matrix(1 0 0 1 -119.96 -269.82)" id="strokes"  >
<path style="stroke: rgb(0,0,0); stroke-width: 7; stroke-dasharray: none; stroke-linecap: butt; stroke-dashoffset: 0; stroke-linejoin: round; stroke-miterlimit: 4; fill: none; fill-rule: nonzero; opacity: 1;"  transform=" translate(-1080.04, -930.18)" d="M 1139.71 1074.246 L 1135.883 1065.007 L 1132.056 1055.768 L 1128.229 1046.529 L 1124.403 1037.291 L 1120.576 1028.052 L 1116.749 1018.813 L 1112.922 1009.574 L 1109.095 1000.335 L 1105.268 991.097 L 1101.442 981.858 L 1098.67 975.167 L 1094.843 965.929 L 1091.017 956.69 L 1087.19 947.451 L 1083.363 938.212 L 1079.536 928.973 L 1075.709 919.735 L 1071.882 910.496 L 1068.056 901.257 L 1064.229 892.018 L 1060.402 882.779 L 1056.575 873.541 L 1052.748 864.302 L 1048.921 855.063 L 1045.094 845.824 L 1041.268 836.585 L 1037.441 827.347 L 1033.614 818.108 L 1029.787 808.869 L 1025.96 799.63 L 1022.134 790.391 L 1020.36 786.11" stroke-linecap="round" />
</g>
		<g transform="matrix(1 0 0 1 -74.04 -158.93)" id="strokes"  >
<path style="stroke: rgb(0,0,0); stroke-width: 7; stroke-dasharray: none; stroke-linecap: butt; stroke-dashoffset: 0; stroke-linejoin: round; stroke-miterlimit: 4; fill: none; fill-rule: nonzero; opacity: 1;"  transform=" translate(-1125.96, -1041.07)" d="M 1112.21 1007.855 L 1116.037 1017.094 L 1119.864 1026.333 L 1123.691 1035.572 L 1127.517 1044.81 L 1131.344 1054.049 L 1135.171 1063.288 L 1138.998 1072.527 L 1139.71 1074.246 L 1139.643 1074.281" stroke-linecap="round" />
</g>
		<g transform="matrix(1 0 0 1 -80.81 -175.28)" id="strokes"  >
<path style="stroke: rgb(0,0,0); stroke-width: 7; stroke-dasharray: none; stroke-linecap: butt; stroke-dashoffset: 0; stroke-linejoin: round; stroke-miterlimit: 4; fill: none; fill-rule: nonzero; opacity: 1;"  transform=" translate(-1119.19, -1024.72)" d="M 1139.643 1074.281 L 1139.71 1074.246 L 1135.883 1065.007 L 1132.056 1055.768 L 1128.229 1046.529 L 1124.403 1037.291 L 1120.576 1028.052 L 1116.749 1018.813 L 1112.922 1009.574 L 1109.095 1000.335 L 1105.268 991.097 L 1101.442 981.858 L 1098.663 975.15" stroke-linecap="round" />
</g>
		<g transform="matrix(1 0 0 1 269.82 -119.96)" id="strokes"  >
<path style="stroke: rgb(0,0,0); stroke-width: 7; stroke-dasharray: none; stroke-linecap: butt; stroke-dashoffset: 0; stroke-linejoin: round; stroke-miterlimit: 4; fill: none; fill-rule: nonzero; opacity: 1;"  transform=" translate(-1469.82, -1080.04)" d="M 1325.754 1139.71 L 1334.993 1135.883 L 1344.232 1132.056 L 1353.471 1128.229 L 1362.709 1124.403 L 1371.948 1120.576 L 1381.187 1116.749 L 1390.426 1112.922 L 1399.665 1109.095 L 1408.903 1105.268 L 1418.142 1101.442 L 1424.85 1098.663 L 1434.089 1094.836 L 1443.328 1091.009 L 1452.566 1087.182 L 1461.805 1083.356 L 1471.044 1079.529 L 1480.283 1075.702 L 1489.522 1071.875 L 1498.76 1068.048 L 1507.999 1064.222 L 1517.238 1060.395 L 1526.477 1056.568 L 1535.716 1052.741 L 1544.954 1048.914 L 1554.193 1045.087 L 1563.432 1041.26 L 1572.671 1037.434 L 1581.91 1033.607 L 1591.148 1029.78 L 1600.387 1025.953 L 1609.626 1022.126 L 1613.89 1020.36" stroke-linecap="round" />
</g>
		<g transform="matrix(1 0 0 1 121.08 -69.03)" id="strokes"  >
<path style="stroke: rgb(0,0,0); stroke-width: 7; stroke-dasharray: none; stroke-linecap: butt; stroke-dashoffset: 0; stroke-linejoin: round; stroke-miterlimit: 4; fill: none; fill-rule: nonzero; opacity: 1;"  transform=" translate(-1321.08, -1130.97)" d="M 1316.406 1122.22 L 1321.12 1131.039 L 1325.719 1139.643 L 1325.754 1139.71 L 1325.754 1139.71" stroke-linecap="round" />
</g>
		<g transform="matrix(1 0 0 1 237.09 -245.84)" id="strokes"  >
<path style="stroke: rgb(0,0,0); stroke-width: 7; stroke-dasharray: none; stroke-linecap: butt; stroke-dashoffset: 0; stroke-linejoin: round; stroke-miterlimit: 4; fill: none; fill-rule: nonzero; opacity: 1;"  transform=" translate(-1437.09, -954.16)" d="M 1613.89 1020.36 L 1606.819 1013.289 L 1599.748 1006.218 L 1592.677 999.147 L 1585.606 992.076 L 1578.535 985.005 L 1571.464 977.934 L 1564.393 970.863 L 1557.322 963.792 L 1550.25 956.72 L 1543.179 949.649 L 1536.108 942.578 L 1529.037 935.507 L 1521.966 928.436 L 1514.895 921.365 L 1507.824 914.294 L 1500.753 907.223 L 1493.682 900.152 L 1486.611 893.081 L 1479.54 886.01 L 1472.469 878.939 L 1465.398 871.868 L 1458.327 864.797 L 1451.256 857.725 L 1444.184 850.654 L 1437.113 843.583 L 1430.042 836.512 L 1422.971 829.441 L 1415.9 822.37 L 1408.829 815.299 L 1401.758 808.228 L 1394.687 801.157 L 1387.616 794.086 L 1379.64 786.11 L 1375.813 795.349 L 1371.986 804.587 L 1368.159 813.826 L 1364.333 823.065 L 1360.506 832.304 L 1356.679 841.543 L 1352.852 850.781 L 1349.025 860.02 L 1345.198 869.259 L 1341.372 878.498 L 1337.545 887.737 L 1333.718 896.975 L 1329.891 906.214 L 1326.064 915.453 L 1322.237 924.692 L 1318.411 933.931 L 1314.584 943.169 L 1310.757 952.408 L 1306.93 961.647 L 1303.103 970.886 L 1299.276 980.125 L 1295.45 989.363 L 1291.623 998.602 L 1287.796 1007.841 L 1283.969 1017.08 L 1280.142 1026.318 L 1276.315 1035.557 L 1272.489 1044.796 L 1268.662 1054.035 L 1264.835 1063.274 L 1260.29 1074.246 L 1269.109 1078.96 L 1277.78 1083.594 L 1285.51 1089.938 L 1293.24 1096.282 L 1298.995 1101.005 L 1305.339 1108.735 L 1311.683 1116.465 L 1316.406 1122.22" stroke-linecap="round" />
</g>
		<g transform="matrix(1 0 0 1 265.15 -119.96)" id="strokes"  >
<path style="stroke: rgb(0,0,0); stroke-width: 7; stroke-dasharray: none; stroke-linecap: butt; stroke-dashoffset: 0; stroke-linejoin: round; stroke-miterlimit: 4; fill: none; fill-rule: nonzero; opacity: 1;"  transform=" translate(-1465.15, -1080.04)" d="M 1316.406 1122.22 L 1321.12 1131.039 L 1325.719 1139.643 L 1325.754 1139.71 L 1334.993 1135.883 L 1344.232 1132.056 L 1353.471 1128.229 L 1362.709 1124.403 L 1371.948 1120.576 L 1381.187 1116.749 L 1390.426 1112.922 L 1399.665 1109.095 L 1408.903 1105.268 L 1418.142 1101.442 L 1427.381 1097.615 L 1436.62 1093.788 L 1445.859 1089.961 L 1455.097 1086.134 L 1464.336 1082.307 L 1473.575 1078.48 L 1482.814 1074.654 L 1492.052 1070.827 L 1501.291 1067 L 1510.53 1063.173 L 1519.769 1059.346 L 1529.008 1055.52 L 1538.246 1051.693 L 1547.485 1047.866 L 1556.724 1044.039 L 1565.963 1040.212 L 1575.202 1036.385 L 1584.44 1032.558 L 1593.679 1028.732 L 1602.918 1024.905 L 1613.89 1020.36 L 1604.651 1024.187 L 1595.413 1028.014 L 1586.174 1031.841 L 1576.935 1035.667 L 1567.696 1039.494 L 1558.457 1043.321 L 1549.219 1047.148 L 1539.98 1050.975 L 1530.741 1054.802 L 1521.502 1058.628 L 1512.263 1062.455 L 1503.025 1066.282 L 1493.786 1070.109 L 1484.547 1073.936 L 1475.308 1077.763 L 1466.069 1081.589 L 1456.831 1085.416 L 1447.592 1089.243 L 1438.353 1093.07 L 1429.114 1096.897 L 1424.833 1098.67 L 1415.594 1102.497 L 1406.355 1106.324 L 1397.116 1110.151 L 1387.877 1113.978 L 1378.639 1117.804 L 1369.4 1121.631 L 1360.161 1125.458 L 1350.922 1129.285 L 1341.683 1133.112 L 1332.445 1136.939 L 1325.754 1139.71" stroke-linecap="round" />
</g>
		<g transform="matrix(1 0 0 1 -5.85 85.84)" id="strokes"  >
<path style="stroke: rgb(0,0,0); stroke-width: 7; stroke-dasharray: none; stroke-linecap: butt; stroke-dashoffset: 0; stroke-linejoin: round; stroke-miterlimit: 4; fill: none; fill-rule: nonzero; opacity: 1;"  transform=" translate(-1194.15, -1285.84)" d="M 1158.295 1288.847 L 1168.246 1289.827 L 1170 1290 L 1179.952 1289.02 L 1181.705 1288.847 L 1191.275 1285.944 L 1192.961 1285.433 L 1200 1281.67 L 1207.039 1285.433 L 1216.608 1288.336 L 1218.295 1288.847 L 1228.246 1289.827 L 1230 1290" stroke-linecap="round" />
</g>
		<g transform="matrix(1 0 0 1 -65.85 40.9)" id="strokes"  >
<path style="stroke: rgb(0,0,0); stroke-width: 7; stroke-dasharray: none; stroke-linecap: butt; stroke-dashoffset: 0; stroke-linejoin: round; stroke-miterlimit: 4; fill: none; fill-rule: nonzero; opacity: 1;"  transform=" translate(-1134.15, -1240.9)" d="M 1114.567 1192.961 L 1118.33 1200 L 1114.567 1207.039 L 1111.664 1216.608 L 1111.153 1218.295 L 1110.173 1228.246 L 1110 1230 L 1110.98 1239.952 L 1111.153 1241.705 L 1114.056 1251.275 L 1114.567 1252.961 L 1119.281 1261.78 L 1120.112 1263.334 L 1126.456 1271.064 L 1127.574 1272.426 L 1135.304 1278.77 L 1136.666 1279.888 L 1145.485 1284.602 L 1147.039 1285.433 L 1156.608 1288.336 L 1158.295 1288.847" stroke-linecap="round" />
</g>
		<g transform="matrix(1 0 0 1 85.84 0)" id="strokes"  >
<path style="stroke: rgb(0,0,0); stroke-width: 7; stroke-dasharray: none; stroke-linecap: butt; stroke-dashoffset: 0; stroke-linejoin: round; stroke-miterlimit: 4; fill: none; fill-rule: nonzero; opacity: 1;"  transform=" translate(-1285.84, -1200)" d="M 1288.847 1241.705 L 1289.827 1231.754 L 1290 1230 L 1289.02 1220.048 L 1288.847 1218.295 L 1285.944 1208.725 L 1285.433 1207.039 L 1281.67 1200 L 1285.433 1192.961 L 1288.336 1183.392 L 1288.847 1181.705 L 1289.827 1171.754 L 1290 1170 L 1289.02 1160.048 L 1288.847 1158.295" stroke-linecap="round" />
</g>
		<g transform="matrix(1 0 0 1 59.42 65.85)" id="strokes"  >
<path style="stroke: rgb(0,0,0); stroke-width: 7; stroke-dasharray: none; stroke-linecap: butt; stroke-dashoffset: 0; stroke-linejoin: round; stroke-miterlimit: 4; fill: none; fill-rule: nonzero; opacity: 1;"  transform=" translate(-1259.42, -1265.85)" d="M 1230 1290 L 1239.952 1289.02 L 1241.705 1288.847 L 1251.275 1285.944 L 1252.961 1285.433 L 1261.78 1280.719 L 1263.334 1279.888 L 1271.064 1273.544 L 1272.426 1272.426 L 1278.77 1264.696 L 1279.888 1263.334 L 1284.602 1254.515 L 1285.433 1252.961 L 1288.336 1243.392 L 1288.847 1241.705" stroke-linecap="round" />
</g>
		<g transform="matrix(1 0 0 1 5.63 -85.26)" id="strokes"  >
<path style="stroke: rgb(0,0,0); stroke-width: 7; stroke-dasharray: none; stroke-linecap: butt; stroke-dashoffset: 0; stroke-linejoin: round; stroke-miterlimit: 4; fill: none; fill-rule: nonzero; opacity: 1;"  transform=" translate(-1205.63, -1114.74)" d="M 1218.295 1111.153 L 1208.725 1114.056 L 1207.039 1114.567 L 1200 1118.33 L 1192.961 1114.567" stroke-linecap="round" />
</g>
		<g transform="matrix(1 0 0 1 -81.21 -39.73)" id="strokes"  >
<path style="stroke: rgb(0,0,0); stroke-width: 7; stroke-dasharray: none; stroke-linecap: butt; stroke-dashoffset: 0; stroke-linejoin: round; stroke-miterlimit: 4; fill: none; fill-rule: nonzero; opacity: 1;"  transform=" translate(-1118.79, -1160.27)" d="M 1127.574 1127.574 L 1121.23 1135.304 L 1120.112 1136.666 L 1115.398 1145.485 L 1114.567 1147.039 L 1111.664 1156.608 L 1111.153 1158.295 L 1110.173 1168.246 L 1110 1170 L 1110.98 1179.952 L 1111.153 1181.705 L 1114.056 1191.275 L 1114.567 1192.961" stroke-linecap="round" />
</g>
		<g transform="matrix(1 0 0 1 -40.81 -84.94)" id="strokes"  >
<path style="stroke: rgb(0,0,0); stroke-width: 7; stroke-dasharray: none; stroke-linecap: butt; stroke-dashoffset: 0; stroke-linejoin: round; stroke-miterlimit: 4; fill: none; fill-rule: nonzero; opacity: 1;"  transform=" translate(-1159.19, -1115.06)" d="M 1181.705 1111.153 L 1171.754 1110.173 L 1170 1110 L 1160.048 1110.98 L 1158.295 1111.153 L 1148.725 1114.056 L 1147.039 1114.567 L 1138.22 1119.281 L 1136.666 1120.112" stroke-linecap="round" />
</g>
		<g transform="matrix(1 0 0 1 35.63 -87.72)" id="strokes"  >
<path style="stroke: rgb(0,0,0); stroke-width: 7; stroke-dasharray: none; stroke-linecap: butt; stroke-dashoffset: 0; stroke-linejoin: round; stroke-miterlimit: 4; fill: none; fill-rule: nonzero; opacity: 1;"  transform=" translate(-1235.63, -1112.28)" d="M 1252.961 1114.567 L 1243.392 1111.664 L 1241.705 1111.153 L 1231.754 1110.173 L 1230 1110 L 1220.048 1110.98 L 1218.295 1111.153" stroke-linecap="round" />
</g>
		<g transform="matrix(1 0 0 1 -29 29)" id="strokes"  >
<path style="stroke: rgb(0,0,0); stroke-width: 7; stroke-dasharray: none; stroke-linecap: butt; stroke-dashoffset: 0; stroke-linejoin: round; stroke-miterlimit: 4; fill: none; fill-rule: nonzero; opacity: 1;"  transform=" translate(-1171, -1229)" d="M 1182 1240 L 1181.577 1235.708 L 1180.325 1231.581 L 1178.292 1227.777 L 1175.556 1224.444 L 1172.223 1221.708 L 1168.419 1219.675 L 1164.292 1218.423 L 1160 1218" stroke-linecap="round" />
</g>
		<g transform="matrix(1 0 0 1 -18.21 42.15)" id="strokes"  >
<path style="stroke: rgb(0,0,0); stroke-width: 7; stroke-dasharray: none; stroke-linecap: butt; stroke-dashoffset: 0; stroke-linejoin: round; stroke-miterlimit: 4; fill: none; fill-rule: nonzero; opacity: 1;"  transform=" translate(-1181.79, -1242.15)" d="M 1181.577 1244.292 L 1182 1240" stroke-linecap="round" />
</g>
		<g transform="matrix(1 0 0 1 -19.05 46.36)" id="strokes"  >
<path style="stroke: rgb(0,0,0); stroke-width: 7; stroke-dasharray: none; stroke-linecap: butt; stroke-dashoffset: 0; stroke-linejoin: round; stroke-miterlimit: 4; fill: none; fill-rule: nonzero; opacity: 1;"  transform=" translate(-1180.95, -1246.36)" d="M 1180.325 1248.419 L 1181.577 1244.292" stroke-linecap="round" />
</g>
		<g transform="matrix(1 0 0 1 -20.69 50.32)" id="strokes"  >
<path style="stroke: rgb(0,0,0); stroke-width: 7; stroke-dasharray: none; stroke-linecap: butt; stroke-dashoffset: 0; stroke-linejoin: round; stroke-miterlimit: 4; fill: none; fill-rule: nonzero; opacity: 1;"  transform=" translate(-1179.31, -1250.32)" d="M 1178.292 1252.223 L 1180.325 1248.419" stroke-linecap="round" />
</g>
		<g transform="matrix(1 0 0 1 -23.08 53.89)" id="strokes"  >
<path style="stroke: rgb(0,0,0); stroke-width: 7; stroke-dasharray: none; stroke-linecap: butt; stroke-dashoffset: 0; stroke-linejoin: round; stroke-miterlimit: 4; fill: none; fill-rule: nonzero; opacity: 1;"  transform=" translate(-1176.92, -1253.89)" d="M 1175.556 1255.556 L 1178.292 1252.223" stroke-linecap="round" />
</g>
		<g transform="matrix(1 0 0 1 -36.43 58.78)" id="strokes"  >
<path style="stroke: rgb(0,0,0); stroke-width: 7; stroke-dasharray: none; stroke-linecap: butt; stroke-dashoffset: 0; stroke-linejoin: round; stroke-miterlimit: 4; fill: none; fill-rule: nonzero; opacity: 1;"  transform=" translate(-1163.57, -1258.78)" d="M 1151.581 1260.325 L 1155.708 1261.577 L 1160 1262 L 1164.292 1261.577 L 1168.419 1260.325 L 1172.223 1258.292 L 1175.556 1255.556" stroke-linecap="round" />
</g>
		<g transform="matrix(1 0 0 1 -50.32 59.31)" id="strokes"  >
<path style="stroke: rgb(0,0,0); stroke-width: 7; stroke-dasharray: none; stroke-linecap: butt; stroke-dashoffset: 0; stroke-linejoin: round; stroke-miterlimit: 4; fill: none; fill-rule: nonzero; opacity: 1;"  transform=" translate(-1149.68, -1259.31)" d="M 1147.777 1258.292 L 1151.581 1260.325" stroke-linecap="round" />
</g>
		<g transform="matrix(1 0 0 1 -57.11 47)" id="strokes"  >
<path style="stroke: rgb(0,0,0); stroke-width: 7; stroke-dasharray: none; stroke-linecap: butt; stroke-dashoffset: 0; stroke-linejoin: round; stroke-miterlimit: 4; fill: none; fill-rule: nonzero; opacity: 1;"  transform=" translate(-1142.89, -1247)" d="M 1138.423 1235.708 L 1138 1240 L 1138.423 1244.292 L 1139.675 1248.419 L 1141.708 1252.223 L 1144.444 1255.556 L 1147.777 1258.292" stroke-linecap="round" />
</g>
		<g transform="matrix(1 0 0 1 -49.15 22.89)" id="strokes"  >
<path style="stroke: rgb(0,0,0); stroke-width: 7; stroke-dasharray: none; stroke-linecap: butt; stroke-dashoffset: 0; stroke-linejoin: round; stroke-miterlimit: 4; fill: none; fill-rule: nonzero; opacity: 1;"  transform=" translate(-1150.85, -1222.89)" d="M 1160 1218 L 1155.708 1218.423 L 1151.581 1219.675 L 1147.777 1221.708 L 1144.444 1224.444 L 1141.708 1227.777" stroke-linecap="round" />
</g>
		<g transform="matrix(1 0 0 1 52.93 27.07)" id="strokes"  >
<path style="stroke: rgb(0,0,0); stroke-width: 7; stroke-dasharray: none; stroke-linecap: butt; stroke-dashoffset: 0; stroke-linejoin: round; stroke-miterlimit: 4; fill: none; fill-rule: nonzero; opacity: 1;"  transform=" translate(-1252.93, -1227.07)" d="M 1261.577 1235.708 L 1260.325 1231.581 L 1258.292 1227.777 L 1255.556 1224.444 L 1252.223 1221.708 L 1248.419 1219.675 L 1244.292 1218.423" stroke-linecap="round" />
</g>
		<g transform="matrix(1 0 0 1 43.22 48.85)" id="strokes"  >
<path style="stroke: rgb(0,0,0); stroke-width: 7; stroke-dasharray: none; stroke-linecap: butt; stroke-dashoffset: 0; stroke-linejoin: round; stroke-miterlimit: 4; fill: none; fill-rule: nonzero; opacity: 1;"  transform=" translate(-1243.22, -1248.85)" d="M 1224.444 1255.556 L 1227.777 1258.292 L 1231.581 1260.325 L 1235.708 1261.577 L 1240 1262 L 1244.292 1261.577 L 1248.419 1260.325 L 1252.223 1258.292 L 1255.556 1255.556 L 1258.292 1252.223 L 1260.325 1248.419 L 1261.577 1244.292 L 1262 1240 L 1261.577 1235.708" stroke-linecap="round" />
</g>
		<g transform="matrix(1 0 0 1 29 36.78)" id="strokes"  >
<path style="stroke: rgb(0,0,0); stroke-width: 7; stroke-dasharray: none; stroke-linecap: butt; stroke-dashoffset: 0; stroke-linejoin: round; stroke-miterlimit: 4; fill: none; fill-rule: nonzero; opacity: 1;"  transform=" translate(-1229, -1236.78)" d="M 1240 1218 L 1235.708 1218.423 L 1231.581 1219.675 L 1227.777 1221.708 L 1224.444 1224.444 L 1221.708 1227.777 L 1219.675 1231.581 L 1218.423 1235.708 L 1218 1240 L 1218.423 1244.292 L 1219.675 1248.419 L 1221.708 1252.223 L 1224.444 1255.556" stroke-linecap="round" />
</g>
		<g transform="matrix(1 0 0 1 -26.85 -50.79)" id="strokes"  >
<path style="stroke: rgb(0,0,0); stroke-width: 7; stroke-dasharray: none; stroke-linecap: butt; stroke-dashoffset: 0; stroke-linejoin: round; stroke-miterlimit: 4; fill: none; fill-rule: nonzero; opacity: 1;"  transform=" translate(-1173.15, -1149.21)" d="M 1182 1160 L 1181.577 1155.708 L 1180.325 1151.581 L 1178.292 1147.777 L 1175.556 1144.444 L 1172.223 1141.708 L 1168.419 1139.675 L 1164.292 1138.423" stroke-linecap="round" />
</g>
		<g transform="matrix(1 0 0 1 -18.21 -37.85)" id="strokes"  >
<path style="stroke: rgb(0,0,0); stroke-width: 7; stroke-dasharray: none; stroke-linecap: butt; stroke-dashoffset: 0; stroke-linejoin: round; stroke-miterlimit: 4; fill: none; fill-rule: nonzero; opacity: 1;"  transform=" translate(-1181.79, -1162.15)" d="M 1181.577 1164.292 L 1182 1160" stroke-linecap="round" />
</g>
		<g transform="matrix(1 0 0 1 -36.99 -26.85)" id="strokes"  >
<path style="stroke: rgb(0,0,0); stroke-width: 7; stroke-dasharray: none; stroke-linecap: butt; stroke-dashoffset: 0; stroke-linejoin: round; stroke-miterlimit: 4; fill: none; fill-rule: nonzero; opacity: 1;"  transform=" translate(-1163.01, -1173.15)" d="M 1144.444 1175.556 L 1147.777 1178.292 L 1151.581 1180.325 L 1155.708 1181.577 L 1160 1182 L 1164.292 1181.577 L 1168.419 1180.325 L 1172.223 1178.292 L 1175.556 1175.556 L 1178.292 1172.223 L 1180.325 1168.419 L 1181.577 1164.292" stroke-linecap="round" />
</g>
		<g transform="matrix(1 0 0 1 -56.92 -26.11)" id="strokes"  >
<path style="stroke: rgb(0,0,0); stroke-width: 7; stroke-dasharray: none; stroke-linecap: butt; stroke-dashoffset: 0; stroke-linejoin: round; stroke-miterlimit: 4; fill: none; fill-rule: nonzero; opacity: 1;"  transform=" translate(-1143.08, -1173.89)" d="M 1141.708 1172.223 L 1144.444 1175.556" stroke-linecap="round" />
</g>
		<g transform="matrix(1 0 0 1 -59.31 -29.68)" id="strokes"  >
<path style="stroke: rgb(0,0,0); stroke-width: 7; stroke-dasharray: none; stroke-linecap: butt; stroke-dashoffset: 0; stroke-linejoin: round; stroke-miterlimit: 4; fill: none; fill-rule: nonzero; opacity: 1;"  transform=" translate(-1140.69, -1170.32)" d="M 1139.675 1168.419 L 1141.708 1172.223" stroke-linecap="round" />
</g>
		<g transform="matrix(1 0 0 1 -58.78 -43.57)" id="strokes"  >
<path style="stroke: rgb(0,0,0); stroke-width: 7; stroke-dasharray: none; stroke-linecap: butt; stroke-dashoffset: 0; stroke-linejoin: round; stroke-miterlimit: 4; fill: none; fill-rule: nonzero; opacity: 1;"  transform=" translate(-1141.22, -1156.43)" d="M 1144.444 1144.444 L 1141.708 1147.777 L 1139.675 1151.581 L 1138.423 1155.708 L 1138 1160 L 1138.423 1164.292 L 1139.675 1168.419" stroke-linecap="round" />
</g>
		<g transform="matrix(1 0 0 1 -42.06 -61.16)" id="strokes"  >
<path style="stroke: rgb(0,0,0); stroke-width: 7; stroke-dasharray: none; stroke-linecap: butt; stroke-dashoffset: 0; stroke-linejoin: round; stroke-miterlimit: 4; fill: none; fill-rule: nonzero; opacity: 1;"  transform=" translate(-1157.94, -1138.84)" d="M 1164.292 1138.423 L 1160 1138 L 1155.708 1138.423 L 1151.581 1139.675" stroke-linecap="round" />
</g>
		<g transform="matrix(1 0 0 1 47.78 -58.78)" id="strokes"  >
<path style="stroke: rgb(0,0,0); stroke-width: 7; stroke-dasharray: none; stroke-linecap: butt; stroke-dashoffset: 0; stroke-linejoin: round; stroke-miterlimit: 4; fill: none; fill-rule: nonzero; opacity: 1;"  transform=" translate(-1247.78, -1141.22)" d="M 1255.556 1144.444 L 1252.223 1141.708 L 1248.419 1139.675 L 1244.292 1138.423 L 1240 1138" stroke-linecap="round" />
</g>
		<g transform="matrix(1 0 0 1 58.57 -49.92)" id="strokes"  >
<path style="stroke: rgb(0,0,0); stroke-width: 7; stroke-dasharray: none; stroke-linecap: butt; stroke-dashoffset: 0; stroke-linejoin: round; stroke-miterlimit: 4; fill: none; fill-rule: nonzero; opacity: 1;"  transform=" translate(-1258.57, -1150.08)" d="M 1261.577 1155.708 L 1260.325 1151.581 L 1258.292 1147.777 L 1255.556 1144.444" stroke-linecap="round" />
</g>
		<g transform="matrix(1 0 0 1 46.79 -29)" id="strokes"  >
<path style="stroke: rgb(0,0,0); stroke-width: 7; stroke-dasharray: none; stroke-linecap: butt; stroke-dashoffset: 0; stroke-linejoin: round; stroke-miterlimit: 4; fill: none; fill-rule: nonzero; opacity: 1;"  transform=" translate(-1246.79, -1171)" d="M 1231.581 1180.325 L 1235.708 1181.577 L 1240 1182 L 1244.292 1181.577 L 1248.419 1180.325 L 1252.223 1178.292 L 1255.556 1175.556 L 1258.292 1172.223 L 1260.325 1168.419 L 1261.577 1164.292 L 1262 1160" stroke-linecap="round" />
</g>
		<g transform="matrix(1 0 0 1 29.68 -20.69)" id="strokes"  >
<path style="stroke: rgb(0,0,0); stroke-width: 7; stroke-dasharray: none; stroke-linecap: butt; stroke-dashoffset: 0; stroke-linejoin: round; stroke-miterlimit: 4; fill: none; fill-rule: nonzero; opacity: 1;"  transform=" translate(-1229.68, -1179.31)" d="M 1227.777 1178.292 L 1231.581 1180.325" stroke-linecap="round" />
</g>
		<g transform="matrix(1 0 0 1 22.89 -33)" id="strokes"  >
<path style="stroke: rgb(0,0,0); stroke-width: 7; stroke-dasharray: none; stroke-linecap: butt; stroke-dashoffset: 0; stroke-linejoin: round; stroke-miterlimit: 4; fill: none; fill-rule: nonzero; opacity: 1;"  transform=" translate(-1222.89, -1167)" d="M 1218.423 1155.708 L 1218 1160 L 1218.423 1164.292 L 1219.675 1168.419 L 1221.708 1172.223 L 1224.444 1175.556 L 1227.777 1178.292" stroke-linecap="round" />
</g>
		<g transform="matrix(1 0 0 1 27.69 -55)" id="strokes"  >
<path style="stroke: rgb(0,0,0); stroke-width: 7; stroke-dasharray: none; stroke-linecap: butt; stroke-dashoffset: 0; stroke-linejoin: round; stroke-miterlimit: 4; fill: none; fill-rule: nonzero; opacity: 1;"  transform=" translate(-1227.69, -1145)" d="M 1235.708 1138.423 L 1231.581 1139.675 L 1227.777 1141.708 L 1224.444 1144.444 L 1221.708 1147.777 L 1219.675 1151.581" stroke-linecap="round" />
</g>
		<g transform="matrix(1 0 0 1 -296.76 -296.76)" id="strokes"  >
<path style="stroke: rgb(0,0,0); stroke-width: 7; stroke-dasharray: none; stroke-linecap: butt; stroke-dashoffset: 0; stroke-linejoin: round; stroke-miterlimit: 4; fill: none; fill-rule: nonzero; opacity: 1;"  transform=" translate(-903.24, -903.24)" d="M 1020.36 786.11 L 1013.289 793.181 L 1006.218 800.252 L 999.147 807.323 L 992.076 814.394 L 985.005 821.465 L 977.934 828.536 L 970.863 835.607 L 963.792 842.678 L 956.72 849.75 L 949.649 856.821 L 942.578 863.892 L 935.507 870.963 L 928.436 878.034 L 921.365 885.105 L 914.294 892.176 L 907.223 899.247 L 900.152 906.318 L 893.081 913.389 L 886.01 920.46 L 878.939 927.531 L 871.868 934.602 L 864.797 941.673 L 857.725 948.744 L 850.654 955.816 L 843.583 962.887 L 836.512 969.958 L 829.441 977.029 L 822.37 984.1 L 815.299 991.171 L 808.228 998.242 L 801.157 1005.313 L 794.086 1012.384 L 786.11 1020.36" stroke-linecap="round" />
</g>
		<g transform="matrix(1 0 0 1 -296.76 296.77)" id="strokes"  >
<path style="stroke: rgb(0,0,0); stroke-width: 7; stroke-dasharray: none; stroke-linecap: butt; stroke-dashoffset: 0; stroke-linejoin: round; stroke-miterlimit: 4; fill: none; fill-rule: nonzero; opacity: 1;"  transform=" translate(-903.24, -1496.77)" d="M 786.11 1379.64 L 793.181 1386.711 L 800.252 1393.782 L 807.323 1400.853 L 814.394 1407.924 L 821.465 1414.995 L 828.536 1422.066 L 835.607 1429.137 L 842.678 1436.208 L 849.749 1443.28 L 856.821 1450.351 L 863.892 1457.422 L 870.963 1464.493 L 878.034 1471.564 L 885.105 1478.635 L 892.176 1485.706 L 899.247 1492.777 L 906.318 1499.848 L 913.389 1506.919 L 920.46 1513.99 L 927.531 1521.061 L 934.602 1528.132 L 941.673 1535.203 L 948.744 1542.275 L 955.815 1549.346 L 962.887 1556.417 L 969.958 1563.488 L 977.029 1570.559 L 984.1 1577.63 L 991.171 1584.701 L 998.242 1591.772 L 1005.313 1598.843 L 1012.384 1605.914 L 1020.36 1613.89" stroke-linecap="round" />
</g>
		<g transform="matrix(1 0 0 1 -269.82 119.97)" id="strokes"  >
<path style="stroke: rgb(0,0,0); stroke-width: 7; stroke-dasharray: none; stroke-linecap: butt; stroke-dashoffset: 0; stroke-linejoin: round; stroke-miterlimit: 4; fill: none; fill-rule: nonzero; opacity: 1;"  transform=" translate(-930.18, -1319.97)" d="M 786.11 1379.64 L 795.349 1375.813 L 804.587 1371.986 L 813.826 1368.159 L 823.065 1364.333 L 832.304 1360.506 L 841.543 1356.679 L 850.781 1352.852 L 860.02 1349.025 L 869.259 1345.198 L 878.498 1341.372 L 887.737 1337.545 L 896.975 1333.718 L 906.214 1329.891 L 915.453 1326.064 L 924.692 1322.237 L 933.931 1318.411 L 943.169 1314.584 L 952.408 1310.757 L 961.647 1306.93 L 970.886 1303.103 L 980.125 1299.276 L 989.363 1295.45 L 998.602 1291.623 L 1007.841 1287.796 L 1017.08 1283.969 L 1026.318 1280.142 L 1035.557 1276.315 L 1044.796 1272.489 L 1054.035 1268.662 L 1063.274 1264.835 L 1074.246 1260.29" stroke-linecap="round" />
</g>
		<g transform="matrix(1 0 0 1 -269.82 -119.96)" id="strokes"  >
<path style="stroke: rgb(0,0,0); stroke-width: 7; stroke-dasharray: none; stroke-linecap: butt; stroke-dashoffset: 0; stroke-linejoin: round; stroke-miterlimit: 4; fill: none; fill-rule: nonzero; opacity: 1;"  transform=" translate(-930.18, -1080.04)" d="M 786.11 1020.36 L 795.349 1024.187 L 804.587 1028.014 L 813.826 1031.841 L 823.065 1035.667 L 832.304 1039.494 L 841.543 1043.321 L 850.781 1047.148 L 860.02 1050.975 L 869.259 1054.802 L 878.498 1058.628 L 887.737 1062.455 L 896.975 1066.282 L 906.214 1070.109 L 915.453 1073.936 L 924.692 1077.763 L 933.931 1081.589 L 943.169 1085.416 L 952.408 1089.243 L 961.647 1093.07 L 970.886 1096.897 L 980.125 1100.724 L 989.363 1104.55 L 998.602 1108.377 L 1007.841 1112.204 L 1017.08 1116.031 L 1026.318 1119.858 L 1035.557 1123.685 L 1044.796 1127.511 L 1054.035 1131.338 L 1063.274 1135.165 L 1074.246 1139.71" stroke-linecap="round" />
</g>
		<g transform="matrix(1 0 0 1 -67.88 -76.16)" id="strokes"  >
<path style="stroke: rgb(0,0,0); stroke-width: 7; stroke-dasharray: none; stroke-linecap: butt; stroke-dashoffset: 0; stroke-linejoin: round; stroke-miterlimit: 4; fill: none; fill-rule: nonzero; opacity: 1;"  transform=" translate(-1132.12, -1123.84)" d="M 1136.666 1120.112 L 1128.936 1126.456 L 1127.574 1127.574" stroke-linecap="round" />
</g>
		<g transform="matrix(1 0 0 1 -60.95 33.64)" id="strokes"  >
<path style="stroke: rgb(0,0,0); stroke-width: 7; stroke-dasharray: none; stroke-linecap: butt; stroke-dashoffset: 0; stroke-linejoin: round; stroke-miterlimit: 4; fill: none; fill-rule: nonzero; opacity: 1;"  transform=" translate(-1139.05, -1233.64)" d="M 1139.675 1231.581 L 1138.423 1235.708" stroke-linecap="round" />
</g>
		<g transform="matrix(1 0 0 1 -59.31 29.68)" id="strokes"  >
<path style="stroke: rgb(0,0,0); stroke-width: 7; stroke-dasharray: none; stroke-linecap: butt; stroke-dashoffset: 0; stroke-linejoin: round; stroke-miterlimit: 4; fill: none; fill-rule: nonzero; opacity: 1;"  transform=" translate(-1140.69, -1229.68)" d="M 1141.708 1227.777 L 1139.675 1231.581" stroke-linecap="round" />
</g>
		<g transform="matrix(1 0 0 1 -53.89 -56.92)" id="strokes"  >
<path style="stroke: rgb(0,0,0); stroke-width: 7; stroke-dasharray: none; stroke-linecap: butt; stroke-dashoffset: 0; stroke-linejoin: round; stroke-miterlimit: 4; fill: none; fill-rule: nonzero; opacity: 1;"  transform=" translate(-1146.11, -1143.08)" d="M 1147.777 1141.708 L 1144.444 1144.444" stroke-linecap="round" />
</g>
		<g transform="matrix(1 0 0 1 -50.32 -59.31)" id="strokes"  >
<path style="stroke: rgb(0,0,0); stroke-width: 7; stroke-dasharray: none; stroke-linecap: butt; stroke-dashoffset: 0; stroke-linejoin: round; stroke-miterlimit: 4; fill: none; fill-rule: nonzero; opacity: 1;"  transform=" translate(-1149.68, -1140.69)" d="M 1151.581 1139.675 L 1147.777 1141.708" stroke-linecap="round" />
</g>
		<g transform="matrix(1 0 0 1 -105.93 -275.73)" id="strokes"  >
<path style="stroke: rgb(0,0,0); stroke-width: 7; stroke-dasharray: none; stroke-linecap: butt; stroke-dashoffset: 0; stroke-linejoin: round; stroke-miterlimit: 4; fill: none; fill-rule: nonzero; opacity: 1;"  transform=" translate(-1094.07, -924.27)" d="M 1034.36 780.11 L 1038.187 789.349 L 1042.014 798.587 L 1045.841 807.826 L 1049.667 817.065 L 1053.494 826.304 L 1057.321 835.543 L 1061.148 844.781 L 1064.975 854.02 L 1068.802 863.259 L 1072.628 872.498 L 1076.455 881.737 L 1080.282 890.975 L 1084.109 900.214 L 1087.936 909.453 L 1091.763 918.692 L 1095.589 927.931 L 1099.416 937.169 L 1103.243 946.408 L 1107.07 955.647 L 1110.897 964.886 L 1114.724 974.125 L 1118.55 983.363 L 1122.377 992.602 L 1126.204 1001.841 L 1130.031 1011.08 L 1133.858 1020.318 L 1137.685 1029.557 L 1141.511 1038.796 L 1145.338 1048.035 L 1149.165 1057.274 L 1153.784 1068.424" stroke-linecap="round" />
</g>
		<g transform="matrix(1 0 0 1 -66.78 181.21)" id="strokes"  >
<path style="stroke: rgb(0,0,0); stroke-width: 7; stroke-dasharray: none; stroke-linecap: butt; stroke-dashoffset: 0; stroke-linejoin: round; stroke-miterlimit: 4; fill: none; fill-rule: nonzero; opacity: 1;"  transform=" translate(-1133.22, -1381.21)" d="M 1153.784 1331.576 L 1149.957 1340.814 L 1146.13 1350.053 L 1142.303 1359.292 L 1138.477 1368.531 L 1134.65 1377.77 L 1130.823 1387.008 L 1126.996 1396.247 L 1123.169 1405.486 L 1119.342 1414.725 L 1115.516 1423.964 L 1112.663 1430.85" stroke-linecap="round" />
</g>
		<g transform="matrix(1 0 0 1 -12.67 -87.14)" id="strokes"  >
<path style="stroke: rgb(0,0,0); stroke-width: 7; stroke-dasharray: none; stroke-linecap: butt; stroke-dashoffset: 0; stroke-linejoin: round; stroke-miterlimit: 4; fill: none; fill-rule: nonzero; opacity: 1;"  transform=" translate(-1187.33, -1112.86)" d="M 1192.961 1114.567 L 1183.392 1111.664 L 1181.705 1111.153" stroke-linecap="round" />
</g>
		<g transform="matrix(1 0 0 1 19.05 -46.36)" id="strokes"  >
<path style="stroke: rgb(0,0,0); stroke-width: 7; stroke-dasharray: none; stroke-linecap: butt; stroke-dashoffset: 0; stroke-linejoin: round; stroke-miterlimit: 4; fill: none; fill-rule: nonzero; opacity: 1;"  transform=" translate(-1219.05, -1153.64)" d="M 1219.675 1151.581 L 1218.423 1155.708" stroke-linecap="round" />
</g>
		<g transform="matrix(1 0 0 1 13.66 138.65)" id="strokes"  >
<path style="stroke: rgb(0,0,0); stroke-width: 7; stroke-dasharray: none; stroke-linecap: butt; stroke-dashoffset: 0; stroke-linejoin: round; stroke-miterlimit: 4; fill: none; fill-rule: nonzero; opacity: 1;"  transform=" translate(-1213.66, -1338.65)" d="M 1227.313 1337.31 L 1217.361 1338.29 L 1207.409 1339.27 L 1200 1340" stroke-linecap="round" />
</g>
		<g transform="matrix(1 0 0 1 37.85 -61.79)" id="strokes"  >
<path style="stroke: rgb(0,0,0); stroke-width: 7; stroke-dasharray: none; stroke-linecap: butt; stroke-dashoffset: 0; stroke-linejoin: round; stroke-miterlimit: 4; fill: none; fill-rule: nonzero; opacity: 1;"  transform=" translate(-1237.85, -1138.21)" d="M 1240 1138 L 1235.708 1138.423" stroke-linecap="round" />
</g>
		<g transform="matrix(1 0 0 1 42.15 18.21)" id="strokes"  >
<path style="stroke: rgb(0,0,0); stroke-width: 7; stroke-dasharray: none; stroke-linecap: butt; stroke-dashoffset: 0; stroke-linejoin: round; stroke-miterlimit: 4; fill: none; fill-rule: nonzero; opacity: 1;"  transform=" translate(-1242.15, -1218.21)" d="M 1244.292 1218.423 L 1240 1218" stroke-linecap="round" />
</g>
		<g transform="matrix(1 0 0 1 61.79 -42.15)" id="strokes"  >
<path style="stroke: rgb(0,0,0); stroke-width: 7; stroke-dasharray: none; stroke-linecap: butt; stroke-dashoffset: 0; stroke-linejoin: round; stroke-miterlimit: 4; fill: none; fill-rule: nonzero; opacity: 1;"  transform=" translate(-1261.79, -1157.85)" d="M 1262 1160 L 1261.577 1155.708" stroke-linecap="round" />
</g>
		<g transform="matrix(1 0 0 1 58.15 -82.66)" id="strokes"  >
<path style="stroke: rgb(0,0,0); stroke-width: 7; stroke-dasharray: none; stroke-linecap: butt; stroke-dashoffset: 0; stroke-linejoin: round; stroke-miterlimit: 4; fill: none; fill-rule: nonzero; opacity: 1;"  transform=" translate(-1258.15, -1117.34)" d="M 1263.334 1120.112 L 1254.515 1115.398 L 1252.961 1114.567" stroke-linecap="round" />
</g>
		<g transform="matrix(1 0 0 1 67.88 -76.16)" id="strokes"  >
<path style="stroke: rgb(0,0,0); stroke-width: 7; stroke-dasharray: none; stroke-linecap: butt; stroke-dashoffset: 0; stroke-linejoin: round; stroke-miterlimit: 4; fill: none; fill-rule: nonzero; opacity: 1;"  transform=" translate(-1267.88, -1123.84)" d="M 1272.426 1127.574 L 1264.696 1121.23 L 1263.334 1120.112" stroke-linecap="round" />
</g>
		<g transform="matrix(1 0 0 1 76.16 -67.88)" id="strokes"  >
<path style="stroke: rgb(0,0,0); stroke-width: 7; stroke-dasharray: none; stroke-linecap: butt; stroke-dashoffset: 0; stroke-linejoin: round; stroke-miterlimit: 4; fill: none; fill-rule: nonzero; opacity: 1;"  transform=" translate(-1276.16, -1132.12)" d="M 1279.888 1136.666 L 1273.544 1128.936 L 1272.426 1127.574" stroke-linecap="round" />
</g>
		<g transform="matrix(1 0 0 1 82.66 -58.15)" id="strokes"  >
<path style="stroke: rgb(0,0,0); stroke-width: 7; stroke-dasharray: none; stroke-linecap: butt; stroke-dashoffset: 0; stroke-linejoin: round; stroke-miterlimit: 4; fill: none; fill-rule: nonzero; opacity: 1;"  transform=" translate(-1282.66, -1141.85)" d="M 1285.433 1147.039 L 1280.719 1138.22 L 1279.888 1136.666" stroke-linecap="round" />
</g>
		<g transform="matrix(1 0 0 1 87.14 -47.33)" id="strokes"  >
<path style="stroke: rgb(0,0,0); stroke-width: 7; stroke-dasharray: none; stroke-linecap: butt; stroke-dashoffset: 0; stroke-linejoin: round; stroke-miterlimit: 4; fill: none; fill-rule: nonzero; opacity: 1;"  transform=" translate(-1287.14, -1152.67)" d="M 1288.847 1158.295 L 1285.944 1148.725 L 1285.433 1147.039" stroke-linecap="round" />
</g>
		<g transform="matrix(1 0 0 1 134.44 -36.76)" id="strokes"  >
<path style="stroke: rgb(0,0,0); stroke-width: 7; stroke-dasharray: none; stroke-linecap: butt; stroke-dashoffset: 0; stroke-linejoin: round; stroke-miterlimit: 4; fill: none; fill-rule: nonzero; opacity: 1;"  transform=" translate(-1334.44, -1163.24)" d="M 1331.576 1153.784 L 1334.479 1163.353 L 1337.31 1172.687" stroke-linecap="round" />
</g>
		<g transform="matrix(1 0 0 1 0 419.89)" id="strokes"  >
<path style="stroke: rgb(0,0,0); stroke-width: 7; stroke-dasharray: none; stroke-linecap: butt; stroke-dashoffset: 0; stroke-linejoin: round; stroke-miterlimit: 4; fill: none; fill-rule: nonzero; opacity: 1;"  transform=" translate(-1200, -1619.89)" d="M 1034.36 1619.89 L 1044.36 1619.89 L 1054.36 1619.89 L 1064.36 1619.89 L 1074.36 1619.89 L 1084.36 1619.89 L 1094.36 1619.89 L 1104.36 1619.89 L 1114.36 1619.89 L 1124.36 1619.89 L 1134.36 1619.89 L 1144.36 1619.89 L 1154.36 1619.89 L 1164.36 1619.89 L 1174.36 1619.89 L 1184.36 1619.89 L 1194.36 1619.89 L 1204.36 1619.89 L 1214.36 1619.89 L 1224.36 1619.89 L 1234.36 1619.89 L 1244.36 1619.89 L 1254.36 1619.89 L 1264.36 1619.89 L 1274.36 1619.89 L 1284.36 1619.89 L 1294.36 1619.89 L 1304.36 1619.89 L 1314.36 1619.89 L 1324.36 1619.89 L 1334.36 1619.89 L 1344.36 1619.89 L 1354.36 1619.89 L 1365.64 1619.89" stroke-linecap="round" />
</g>
		<g transform="matrix(1 0 0 1 0 -419.89)" id="strokes"  >
<path style="stroke: rgb(0,0,0); stroke-width: 7; stroke-dasharray: none; stroke-linecap: butt; stroke-dashoffset: 0; stroke-linejoin: round; stroke-miterlimit: 4; fill: none; fill-rule: nonzero; opacity: 1;"  transform=" translate(-1200, -780.11)" d="M 1365.64 780.11 L 1355.64 780.11 L 1345.64 780.11 L 1335.64 780.11 L 1325.64 780.11 L 1315.64 780.11 L 1305.64 780.11 L 1295.64 780.11 L 1285.64 780.11 L 1275.64 780.11 L 1265.64 780.11 L 1255.64 780.11 L 1245.64 780.11 L 1235.64 780.11 L 1225.64 780.11 L 1215.64 780.11 L 1205.64 780.11 L 1195.64 780.11 L 1185.64 780.11 L 1175.64 780.11 L 1165.64 780.11 L 1155.64 780.11 L 1145.64 780.11 L 1135.64 780.11 L 1125.64 780.11 L 1115.64 780.11 L 1105.64 780.11 L 1095.64 780.11 L 1085.64 780.11 L 1075.64 780.11 L 1065.64 780.11 L 1055.64 780.11 L 1045.64 780.11 L 1034.36 780.11" stroke-linecap="round" />
</g>
		<g transform="matrix(1 0 0 1 275.73 105.93)" id="strokes"  >
<path style="stroke: rgb(0,0,0); stroke-width: 7; stroke-dasharray: none; stroke-linecap: butt; stroke-dashoffset: 0; stroke-linejoin: round; stroke-miterlimit: 4; fill: none; fill-rule: nonzero; opacity: 1;"  transform=" translate(-1475.73, -1305.93)" d="M 1619.89 1365.64 L 1610.651 1361.813 L 1601.413 1357.986 L 1592.174 1354.159 L 1582.935 1350.333 L 1573.696 1346.506 L 1564.457 1342.679 L 1555.219 1338.852 L 1545.98 1335.025 L 1536.741 1331.198 L 1527.502 1327.372 L 1518.263 1323.545 L 1509.025 1319.718 L 1499.786 1315.891 L 1490.547 1312.064 L 1481.308 1308.237 L 1472.069 1304.411 L 1462.831 1300.584 L 1453.592 1296.757 L 1444.353 1292.93 L 1435.114 1289.103 L 1425.875 1285.276 L 1416.637 1281.45 L 1407.398 1277.623 L 1398.159 1273.796 L 1388.92 1269.969 L 1379.682 1266.142 L 1370.443 1262.315 L 1361.204 1258.489 L 1351.965 1254.662 L 1342.726 1250.835 L 1331.576 1246.216" stroke-linecap="round" />
</g>
		<g transform="matrix(1 0 0 1 275.73 -105.93)" id="strokes"  >
<path style="stroke: rgb(0,0,0); stroke-width: 7; stroke-dasharray: none; stroke-linecap: butt; stroke-dashoffset: 0; stroke-linejoin: round; stroke-miterlimit: 4; fill: none; fill-rule: nonzero; opacity: 1;"  transform=" translate(-1475.73, -1094.07)" d="M 1619.89 1034.36 L 1610.651 1038.187 L 1601.413 1042.014 L 1592.174 1045.841 L 1582.935 1049.667 L 1573.696 1053.494 L 1564.457 1057.321 L 1555.219 1061.148 L 1545.98 1064.975 L 1536.741 1068.802 L 1527.502 1072.628 L 1518.263 1076.455 L 1509.025 1080.282 L 1499.786 1084.109 L 1490.547 1087.936 L 1481.308 1091.763 L 1472.069 1095.589 L 1462.831 1099.416 L 1453.592 1103.243 L 1444.353 1107.07 L 1435.114 1110.897 L 1425.875 1114.724 L 1416.637 1118.55 L 1407.398 1122.377 L 1398.159 1126.204 L 1388.92 1130.031 L 1379.682 1133.858 L 1370.443 1137.685 L 1361.204 1141.511 L 1351.965 1145.338 L 1342.726 1149.165 L 1331.576 1153.784" stroke-linecap="round" />
</g>
</g>
</g>
</svg>